<svg width="211" height="196" viewBox="0 0 211 196" fill="none" xmlns="http://www.w3.org/2000/svg">
<g clip-path="url(#clip0_2200_4927)">
<path d="M103.56 -0.0763852C103.995 -0.075717 103.995 -0.075717 104.44 -0.0750352C109.12 -0.0629991 113.712 0.105774 118.354 0.733178C118.671 0.775118 118.988 0.817058 119.315 0.860269C126.414 1.81593 133.361 3.41177 140.182 5.62111C140.461 5.71145 140.74 5.80178 141.028 5.89486C149.724 8.74193 158.16 12.3991 165.89 17.3521C166.05 17.4543 166.21 17.5565 166.375 17.6618C170.31 20.1949 174.049 23.0166 177.531 26.1504C177.741 26.3379 177.951 26.5253 178.168 26.7184C178.768 27.2582 179.362 27.8037 179.956 28.35C180.195 28.5645 180.433 28.7791 180.678 29.0001C197.788 44.5142 208.264 67.2951 210.946 94.41C212.162 118.175 205.534 141.834 188.202 162.768C188.019 162.977 187.836 163.186 187.647 163.401C187.109 164.009 186.566 164.611 186.02 165.212C185.898 165.347 185.776 165.482 185.651 165.621C182.859 168.714 182.859 168.714 181.428 169.916C180.913 170.356 180.421 170.817 179.929 171.282C178.241 172.873 176.467 174.321 174.621 175.721C174.458 175.845 174.295 175.969 174.126 176.097C156.122 189.71 133.558 195.884 107.925 196.052C107.637 196.052 107.348 196.052 107.051 196.051C88.8801 196.026 70.9798 193.066 54.3266 185.497C54.1201 185.404 53.9135 185.312 53.7007 185.217C46.9694 182.191 40.5589 178.237 34.6818 173.766C34.5264 173.648 34.3711 173.53 34.2111 173.409C32.3957 172.024 30.6802 170.562 29.0193 168.993C28.5063 168.511 27.9869 168.05 27.4514 167.595C25.1764 165.606 23.0302 163.386 21.1002 161.057C20.9138 160.842 20.7275 160.628 20.5355 160.406C6.51894 144.171 -0.0768014 123.878 -0.0452978 102.555C-0.0450707 102.353 -0.0448436 102.152 -0.0446095 101.944C-0.00530867 85.7147 3.90898 69.8202 10.914 55.2336C11.0727 54.8967 11.0727 54.8967 11.2347 54.553C13.6474 49.4372 16.5385 44.6294 19.8875 40.081C19.9925 39.9382 20.0974 39.7954 20.2055 39.6483C23.2337 35.5522 26.6294 31.806 30.195 28.182C30.4051 27.9671 30.6151 27.7522 30.8315 27.5309C32.2814 26.0679 33.8071 24.7516 35.4094 23.4621C35.6585 23.251 35.9067 23.0388 36.1531 22.8243C40.59 18.99 45.5482 15.7854 50.6787 12.9801C51.0134 12.7966 51.3472 12.6114 51.6801 12.4247C67.3586 3.63735 85.7438 -0.133614 103.56 -0.0763852Z" fill="url(#paint0_linear_2200_4927)"/>
<path d="M108.198 14.8466C108.462 14.8625 108.462 14.8625 108.73 14.8786C122.782 15.7474 136.056 19.441 148.913 25.1721C149.108 25.2583 149.303 25.3445 149.504 25.4333C157.757 29.1025 165.939 34.4623 172.195 41.0574C172.814 41.6855 173.436 42.3068 174.069 42.9199C175.767 44.5727 177.248 46.3179 178.669 48.2148C178.97 48.6122 179.28 49.003 179.59 49.3933C186.914 58.6685 193.013 71.135 191.774 83.2495C190.881 89.4609 187.392 95.553 183.182 100.083C182.719 100.586 182.272 101.096 181.827 101.615C179.573 104.22 177.101 106.651 174.378 108.753C174.061 109.004 173.743 109.254 173.426 109.505C171.224 111.236 168.978 112.869 166.617 114.374C166.48 114.462 166.342 114.55 166.2 114.641C165.141 115.31 164.064 115.947 162.979 116.574C162.778 116.69 162.577 116.807 162.369 116.928C149.111 124.556 134.543 128.243 119.415 129.694C119.111 129.723 118.807 129.753 118.493 129.783C114.382 130.156 110.279 130.31 106.152 130.305C105.931 130.305 105.711 130.305 105.484 130.305C88.5258 130.274 71.5259 127.01 56.0242 119.995C55.8166 119.902 55.609 119.809 55.3951 119.714C48.8897 116.789 42.6849 112.974 37.1069 108.509C36.8912 108.338 36.6755 108.167 36.4532 107.991C28.7831 101.804 22.1818 93.5564 20.9484 83.4436C19.8095 70.0884 26.0057 57.8535 34.2837 47.8133C35.3563 46.5355 36.4656 45.2897 37.5834 44.0521C38.0247 43.5597 38.4534 43.0592 38.8804 42.5542C40.641 40.5202 42.5844 38.6474 44.6253 36.9027C44.8601 36.6932 45.0949 36.4837 45.3368 36.2679C47.6568 34.2074 50.1078 32.3516 52.6288 30.5486C52.8597 30.3833 52.8597 30.3833 53.0953 30.2147C69.1815 18.8182 88.6386 13.6625 108.198 14.8466Z" fill="white"/>
<path d="M23.7489 118.584C35.7366 123.93 48.3141 129.629 60.7424 133.799C79.9772 140.254 100.177 146.339 109.827 165.387C113.353 172.533 117.607 181.943 115.393 190.148C114.936 191.393 114.342 192.387 113.454 193.355C113.296 193.551 113.296 193.551 113.135 193.751C111.991 194.98 110.468 195.198 108.904 195.539C108.169 195.635 108.169 195.635 107.897 195.955C107.237 195.982 106.582 195.994 105.922 195.995C105.718 195.996 105.513 195.997 105.303 195.998C104.628 196 103.954 196 103.28 196C103.049 195.999 102.819 195.999 102.581 195.999C85.5277 195.97 68.6315 192.98 53.0169 185.79C52.8197 185.7 52.6225 185.611 52.4194 185.519C45.9925 182.592 39.8719 178.767 34.2606 174.442C34.1123 174.328 33.9639 174.214 33.8111 174.097C32.0779 172.757 30.44 171.343 28.8542 169.825C28.3644 169.36 27.8685 168.913 27.3572 168.473C25.1851 166.549 23.1359 164.401 21.2932 162.149C21.1153 161.941 20.9374 161.733 20.7541 161.519C10.9181 149.977 1.39132 132.582 1.84217 116.759C2.31976 114.606 3.01795 112.436 4.75296 111.026C10.1052 107.62 18.8014 116.378 23.7489 118.584Z" fill="url(#paint1_linear_2200_4927)"/>
<path d="M76.5989 54.2413C79.689 56.8464 81.9101 60.5795 82.3693 64.6507C82.6743 68.7562 81.7391 72.3465 79.1811 75.5795C78.6489 76.1947 78.0988 76.78 77.5284 77.359C77.314 77.5882 77.314 77.5882 77.0953 77.822C74.8538 80.0303 71.5525 81.2512 68.5726 82.0024C68.3913 82.049 68.21 82.0956 68.0232 82.1436C64.0755 82.7595 60.2249 82.2084 56.9543 79.8029C53.2262 76.8606 50.9046 72.7756 50.1769 68.0722C49.767 63.7381 51.0125 59.4686 53.7539 56.1016C59.3566 49.7249 70.0609 49.2149 76.5989 54.2413Z" fill="#040707"/>
<path d="M68.3993 89.6315C69.6119 90.6585 70.7488 91.6886 71.2338 93.2362C71.1865 94.5485 70.7876 95.4191 69.9454 96.4133C66.387 99.5209 62.5643 100.822 57.8644 100.675C53.7466 100.35 49.465 99.8949 46.5869 96.5813C45.621 95.3809 45.5874 94.3761 45.738 92.8544C46.5247 90.7028 48.6456 89.2494 50.6189 88.2415C55.8938 86.0595 63.6796 86.2658 68.3993 89.6315Z" fill="#F9C420"/>
<path d="M167.049 89.6315C168.261 90.6585 169.398 91.6886 169.883 93.2362C169.836 94.5485 169.437 95.4191 168.595 96.4133C165.036 99.5209 161.214 100.822 156.514 100.675C152.396 100.35 148.114 99.8949 145.236 96.5813C144.27 95.3809 144.237 94.3761 144.387 92.8544C145.174 90.7028 147.295 89.2494 149.268 88.2415C154.543 86.0595 162.329 86.2658 167.049 89.6315Z" fill="#F9C420"/>
<path d="M147.231 57.7249C148.72 58.8414 149.381 60.3626 149.769 62.1258C149.92 63.9469 149.548 65.4477 148.361 66.8919C147.085 68.2179 145.305 68.8487 143.461 68.9115C141.161 68.9448 139.605 68.5234 137.847 67.0037C136.479 65.544 136.027 63.8401 136.109 61.8917C136.393 60.0237 137.416 58.7386 138.898 57.5703C141.406 55.843 144.746 56.0937 147.231 57.7249Z" fill="white"/>
<path d="M67.7636 57.7249C69.2527 58.8414 69.9132 60.3626 70.3015 62.1258C70.4525 63.9469 70.0807 65.4477 68.8939 66.8919C67.618 68.2179 65.8375 68.8487 63.9939 68.9115C61.6937 68.9448 60.1374 68.5234 58.3794 67.0037C57.0118 65.544 56.5592 63.8401 56.6414 61.8917C56.9258 60.0237 57.9487 58.7386 59.4307 57.5703C61.9381 55.843 65.2787 56.0937 67.7636 57.7249Z" fill="white"/>
<ellipse cx="73.5303" cy="73.8356" rx="2.28355" ry="2.23744" fill="white"/>
<ellipse cx="152.084" cy="73.8356" rx="2.28355" ry="2.23744" fill="white"/>
<path d="M99.8764 92.2073C100.311 92.2065 100.745 92.2057 101.179 92.2049C102.086 92.2035 102.994 92.203 103.901 92.2032C104.818 92.2032 105.735 92.2016 106.652 92.1983C123.859 92.1384 123.859 92.1384 126.165 94.3762C126.863 96.5323 126.338 98.7461 125.475 100.764C122.608 106.634 117.72 110.653 111.892 113.13C107.296 114.6 102.395 113.619 98.1906 111.461C96.1747 110.369 94.5004 108.959 92.8249 107.388C92.672 107.25 92.5191 107.112 92.3615 106.97C89.4951 104.242 87.0908 100.093 86.7749 96.0618C86.8777 95.0045 87.0409 94.4029 87.7934 93.6572C88.5915 93.0987 89.2171 92.9616 90.1664 92.7941C90.4601 92.7395 90.7538 92.6849 91.0564 92.6287C93.9815 92.1962 96.9287 92.2085 99.8764 92.2073Z" fill="#702630"/>
<path d="M99.8764 92.2073C100.311 92.2065 100.745 92.2057 101.179 92.2049C102.086 92.2035 102.994 92.203 103.901 92.2032C104.818 92.2032 105.735 92.2016 106.652 92.1983C123.859 92.1384 123.859 92.1384 126.165 94.3762C126.863 96.5323 126.338 98.7461 125.475 100.764C122.608 106.634 117.72 110.653 111.892 113.13C107.296 114.6 102.395 113.619 98.1906 111.461C96.1747 110.369 94.5004 108.959 92.8249 107.388C92.672 107.25 92.5191 107.112 92.3615 106.97C89.4951 104.242 87.0908 100.093 86.7749 96.0618C86.8777 95.0045 87.0409 94.4029 87.7934 93.6572C88.5915 93.0987 89.2171 92.9616 90.1664 92.7941C90.4601 92.7395 90.7538 92.6849 91.0564 92.6287C93.9815 92.1962 96.9287 92.2085 99.8764 92.2073ZM93.0232 93.3895C92.7335 93.414 92.7335 93.414 92.438 93.439C90.0231 93.662 90.0231 93.662 87.9964 94.8494C87.3612 97.3235 88.511 99.7363 89.7098 101.856C91.5986 104.999 94.6485 108.504 97.9369 110.078C97.9846 109.927 98.1414 108.991 98.1906 108.835C99.307 106.499 100.217 105.906 102.504 104.709C105.007 103.491 107.349 103.009 109.811 103.814C112.552 104.709 113.465 105.156 115.292 107.394C115.749 108.289 116.205 109.183 116.205 109.631C120.397 107.678 123.46 102.796 125.245 98.6346C125.442 97.915 125.526 97.2539 125.547 96.5054C125.555 96.3053 125.564 96.1053 125.573 95.8992C125.439 95.1109 125.168 94.8587 124.555 94.3762C119.285 92.3193 112.414 93.1181 106.873 93.1316C105.751 93.1343 104.629 93.1328 103.507 93.1299C102.626 93.1282 101.744 93.1288 100.863 93.13C100.45 93.1303 100.037 93.13 99.6236 93.1288C97.4146 93.1241 95.2244 93.1902 93.0232 93.3895Z" fill="black"/>
<path d="M113.647 106.163C114.748 107.198 115.583 108.006 115.659 109.618C112.882 112.189 109.212 112.828 105.595 112.65C103.305 112.409 100.879 111.79 98.9921 110.37C98.6445 109.854 98.6445 109.854 98.6508 109.157C99.2218 107.312 100.691 106.138 102.3 105.252C106.223 103.24 110.073 103.17 113.647 106.163Z" fill="#E44D64"/>
<path d="M107.159 104.576C107.707 104.655 108.123 104.719 108.262 105.053C107.222 105.958 105.666 106.566 104.079 106.993C103.067 107.237 101.97 107.417 101.055 107.357C100.87 107.292 100.87 107.292 100.827 107.143C100.955 106.677 101.517 106.237 102.16 105.842C103.736 104.909 105.407 104.398 107.159 104.576Z" fill="#F87C8F"/>
<path d="M165.304 66.7994C165.483 66.9672 165.662 67.1349 165.847 67.3077C167.339 68.7703 168.58 70.3632 168.983 72.4773C168.983 72.7896 168.983 73.1019 168.983 73.4236C168.069 72.4932 168.255 72.5259 167.613 72.0457C167.407 71.8496 167.367 71.8002 167.156 71.5982C160.495 65.5551 151.42 64.4769 142.771 64.9068C137.077 65.3604 130.615 68.1211 126.67 72.4496C125.92 72.886 125.417 72.7088 124.606 72.4773C124.083 72.0678 123.312 71.5982 122.855 71.1507C122.855 71.1507 122.855 71.1507 122.398 70.7032C118.288 68.0183 117.878 69.1914 117.831 67.1233C118.298 65.7972 121.448 63.0764 122.537 62.3045C122.664 62.2117 122.791 62.1189 122.921 62.0233C126.905 59.13 131.477 57.2077 136.333 56.6266C136.569 56.5976 136.805 56.5687 137.048 56.5388C147.492 55.5171 157.631 59.6062 165.304 66.7994Z" fill="#040707"/>
</g>
<defs>
<linearGradient id="paint0_linear_2200_4927" x1="138.383" y1="113.215" x2="-4.05195" y2="48.8628" gradientUnits="userSpaceOnUse">
<stop stop-color="#C91522"/>
<stop offset="0.235577" stop-color="#CA262B"/>
<stop offset="1" stop-color="#751623"/>
</linearGradient>
<linearGradient id="paint1_linear_2200_4927" x1="13.7012" y1="114.557" x2="91.8874" y2="172.251" gradientUnits="userSpaceOnUse">
<stop stop-color="#871925" stop-opacity="0.63"/>
<stop offset="1" stop-color="#601415"/>
</linearGradient>
<clipPath id="clip0_2200_4927">
<rect width="211" height="196" fill="white"/>
</clipPath>
</defs>
</svg>
