<svg width="180" height="68" viewBox="0 0 180 68" fill="none" xmlns="http://www.w3.org/2000/svg">
  <g id="mascot" transform="translate(0, 3) scale(0.24)">
    <g filter="url(#filter0_d_2908_2299)">
<path d="M117.355 4.00072C117.832 4.00146 117.832 4.00146 118.318 4.00222C123.438 4.01566 128.462 4.20412 133.542 4.90468C133.889 4.95152 134.235 4.99835 134.593 5.0466C142.36 6.1137 149.96 7.89563 157.423 10.3626C157.729 10.4635 158.034 10.5644 158.349 10.6683C167.863 13.8474 177.093 17.931 185.55 23.4616C185.726 23.5757 185.901 23.6899 186.081 23.8074C190.386 26.6359 194.478 29.7866 198.287 33.2859C198.517 33.4952 198.747 33.7045 198.984 33.9202C199.64 34.5228 200.291 35.132 200.941 35.742C201.202 35.9815 201.462 36.2211 201.731 36.4679C220.45 53.7911 231.913 79.2286 234.847 109.505C236.177 136.042 228.926 162.46 209.963 185.835C209.762 186.068 209.562 186.301 209.355 186.542C208.767 187.221 208.172 187.893 207.575 188.564C207.442 188.715 207.308 188.865 207.171 189.021C204.117 192.474 204.117 192.474 202.551 193.816C201.988 194.308 201.449 194.822 200.911 195.342C199.064 197.118 197.123 198.735 195.103 200.298C194.925 200.437 194.746 200.576 194.562 200.718C174.863 215.918 150.176 222.813 122.131 223C121.816 223 121.5 223 121.175 223C101.294 222.971 81.7091 219.667 63.4887 211.214C63.2627 211.111 63.0367 211.008 62.8039 210.901C55.4392 207.523 48.4253 203.108 41.9952 198.115C41.8252 197.984 41.6553 197.852 41.4802 197.717C39.494 196.17 37.6171 194.537 35.7998 192.785C35.2386 192.248 34.6703 191.733 34.0844 191.225C31.5953 189.004 29.2471 186.525 27.1355 183.925C26.9316 183.685 26.7277 183.445 26.5177 183.198C11.1821 165.069 3.96565 142.41 4.00012 118.6C4.00037 118.375 4.00062 118.15 4.00088 117.918C4.04388 99.7961 8.32652 82.0481 15.9907 65.7606C16.1644 65.3844 16.1644 65.3844 16.3416 65.0006C18.9814 59.2883 22.1446 53.9198 25.8087 48.841C25.9235 48.6815 26.0383 48.5221 26.1566 48.3578C29.4698 43.7841 33.185 39.601 37.0862 35.5544C37.316 35.3144 37.5458 35.0745 37.7826 34.8273C39.3689 33.1938 41.0382 31.724 42.7912 30.284C43.0638 30.0484 43.3354 29.8114 43.6049 29.572C48.4593 25.2905 53.8841 21.7122 59.4975 18.5797C59.8637 18.3748 60.2288 18.168 60.5931 17.9596C77.7471 8.14753 97.8623 3.93681 117.355 4.00072Z" fill="url(#paint0_linear_2908_2299)"/>
<path d="M122.429 20.6641C122.717 20.6818 122.717 20.6818 123.011 20.6998C138.385 21.6699 152.908 25.7942 166.974 32.1936C167.188 32.2898 167.402 32.3861 167.622 32.4853C176.651 36.5824 185.603 42.5672 192.448 49.9313C193.125 50.6327 193.806 51.3265 194.498 52.011C196.355 53.8566 197.976 55.8053 199.531 57.9234C199.861 58.3672 200.199 58.8035 200.538 59.2393C208.552 69.5961 215.225 83.5164 213.869 97.0437C212.893 103.979 209.075 110.782 204.469 115.84C203.962 116.401 203.473 116.971 202.987 117.551C200.52 120.459 197.815 123.174 194.836 125.521C194.489 125.801 194.142 126.081 193.795 126.361C191.385 128.294 188.928 130.117 186.345 131.798C186.194 131.896 186.044 131.994 185.888 132.095C184.73 132.843 183.552 133.554 182.365 134.254C182.144 134.384 181.924 134.515 181.697 134.649C167.191 143.167 151.252 147.284 134.701 148.904C134.368 148.937 134.035 148.97 133.692 149.003C129.194 149.421 124.705 149.592 120.19 149.587C119.948 149.586 119.707 149.586 119.459 149.586C100.905 149.552 82.3053 145.907 65.3447 138.074C65.1176 137.97 64.8905 137.867 64.6565 137.76C57.5389 134.495 50.7502 130.234 44.6473 125.248C44.4113 125.058 44.1753 124.867 43.9321 124.671C35.5402 117.762 28.3177 108.552 26.9682 97.2603C25.7221 82.3478 32.5014 68.6861 41.5584 57.475C42.732 56.0483 43.9457 54.6572 45.1687 53.2753C45.6514 52.7254 46.1205 52.1665 46.5877 51.6027C48.514 49.3315 50.6402 47.2403 52.8732 45.2922C53.1301 45.0583 53.387 44.8244 53.6516 44.5833C56.1899 42.2825 58.8716 40.2104 61.6298 38.1971C61.8825 38.0126 61.8825 38.0126 62.1403 37.8243C79.7403 25.0988 101.028 19.3418 122.429 20.6641Z" fill="white"/>
<path d="M30.0324 136.499C43.1483 142.468 56.9093 148.831 70.5072 153.488C91.5521 160.696 113.653 167.491 124.211 188.759C128.069 196.738 132.723 207.246 130.301 216.408C129.801 217.798 129.15 218.907 128.179 219.988C128.006 220.207 128.006 220.207 127.83 220.431C126.578 221.803 124.913 222.046 123.201 222.427C122.397 222.535 122.397 222.535 122.099 222.892C121.377 222.922 120.661 222.935 119.938 222.936C119.715 222.938 119.491 222.939 119.261 222.94C118.523 222.942 117.785 222.942 117.048 222.942C116.795 222.941 116.543 222.941 116.283 222.941C97.6249 222.909 79.1387 219.57 62.0547 211.541C61.839 211.441 61.6232 211.341 61.4009 211.239C54.3693 207.971 47.6726 203.7 41.5333 198.87C41.371 198.743 41.2088 198.616 41.0416 198.485C39.1452 196.989 37.3532 195.409 35.6182 193.715C35.0823 193.195 34.5397 192.696 33.9803 192.205C31.6038 190.057 29.3618 187.659 27.3457 185.144C27.151 184.912 26.9564 184.68 26.7558 184.441C15.9942 171.552 5.57092 152.128 6.0642 134.461C6.58673 132.056 7.35062 129.634 9.2489 128.059C15.1048 124.256 24.6194 134.036 30.0324 136.499Z" fill="url(#paint1_linear_2908_2299)"/>
<path d="M87.8559 64.6526C91.2367 67.5614 93.6668 71.7299 94.1693 76.2759C94.503 80.8601 93.4797 84.8691 90.681 88.4791C90.0987 89.166 89.4969 89.8195 88.8728 90.4661C88.6382 90.722 88.6382 90.722 88.399 90.983C85.9465 93.4489 82.3346 94.8122 79.0742 95.6509C78.8759 95.703 78.6775 95.755 78.4732 95.8087C74.1539 96.4964 69.941 95.881 66.3625 93.1949C62.2837 89.9095 59.7436 85.3482 58.9474 80.0963C58.4989 75.2568 59.8617 70.4895 62.861 66.7298C68.9909 59.6095 80.7026 59.04 87.8559 64.6526Z" fill="#040707"/>
<path d="M78.8847 104.17C80.2114 105.317 81.4553 106.467 81.986 108.195C81.9342 109.66 81.4978 110.632 80.5763 111.742C76.683 115.212 72.5005 116.665 67.3585 116.501C62.8531 116.139 58.1686 115.63 55.0196 111.93C53.9628 110.59 53.9261 109.468 54.0909 107.768C54.9516 105.366 57.2721 103.743 59.4311 102.618C65.2023 100.181 73.7208 100.412 78.8847 104.17Z" fill="#F9C420"/>
<path d="M186.817 104.17C188.144 105.317 189.388 106.467 189.919 108.195C189.867 109.66 189.43 110.632 188.509 111.742C184.616 115.212 180.433 116.665 175.291 116.501C170.786 116.139 166.101 115.63 162.952 111.93C161.895 110.59 161.859 109.468 162.023 107.768C162.884 105.366 165.205 103.743 167.364 102.618C173.135 100.181 181.653 100.412 186.817 104.17Z" fill="#F9C420"/>
<path d="M165.135 68.5424C166.764 69.7891 167.487 71.4878 167.912 73.4565C168.077 75.49 167.67 77.1658 166.372 78.7784C164.976 80.259 163.028 80.9634 161.011 81.0335C158.494 81.0707 156.791 80.6002 154.868 78.9032C153.372 77.2733 152.876 75.3707 152.966 73.1951C153.277 71.1093 154.397 69.6743 156.018 68.3698C158.761 66.441 162.416 66.721 165.135 68.5424Z" fill="white"/>
<path d="M84.179 68.4978C85.8083 69.7444 86.531 71.4431 86.9558 73.4119C87.1209 75.4453 86.7141 77.1211 85.4157 78.7337C84.0197 80.2143 82.0717 80.9188 80.0546 80.9888C77.5379 81.026 75.8352 80.5555 73.9118 78.8586C72.4155 77.2286 71.9203 75.326 72.0102 73.1505C72.3213 71.0646 73.4405 69.6296 75.062 68.3251C77.8053 66.3964 81.4603 66.6763 84.179 68.4978Z" fill="white"/>
<path d="M71.9969 86.5319C71.9969 87.9117 70.8783 89.0303 69.4984 89.0303C68.1186 89.0303 67 87.9117 67 86.5319C67 85.1521 68.1186 84.0336 69.4984 84.0336C70.8783 84.0336 71.9969 85.1521 71.9969 86.5319Z" fill="white"/>
<ellipse cx="170.445" cy="86.5319" rx="2.49844" ry="2.49836" fill="white"/>
<path d="M113.324 107.046C113.799 107.045 114.274 107.044 114.749 107.043C115.741 107.042 116.734 107.041 117.727 107.041C118.73 107.041 119.733 107.04 120.736 107.036C139.564 106.969 139.564 106.969 142.086 109.468C142.85 111.875 142.276 114.347 141.331 116.6C138.194 123.155 132.846 127.643 126.47 130.408C121.442 132.05 116.079 130.954 111.479 128.544C109.274 127.325 107.442 125.752 105.609 123.997C105.441 123.843 105.274 123.689 105.102 123.53C101.965 120.484 99.3349 115.851 98.9893 111.35C99.1017 110.169 99.2803 109.498 100.104 108.665C100.977 108.041 101.661 107.888 102.7 107.701C103.021 107.64 103.343 107.579 103.674 107.516C106.874 107.034 110.099 107.047 113.324 107.046Z" fill="#702630"/>
<path d="M113.324 107.046C113.799 107.045 114.274 107.044 114.749 107.043C115.741 107.042 116.734 107.041 117.727 107.041C118.73 107.041 119.733 107.04 120.736 107.036C139.564 106.969 139.564 106.969 142.086 109.468C142.85 111.875 142.276 114.347 141.331 116.6C138.194 123.155 132.846 127.643 126.47 130.408C121.442 132.05 116.079 130.954 111.479 128.544C109.274 127.325 107.442 125.752 105.609 123.997C105.441 123.843 105.274 123.689 105.102 123.53C101.965 120.484 99.3349 115.851 98.9893 111.35C99.1017 110.169 99.2803 109.498 100.104 108.665C100.977 108.041 101.661 107.888 102.7 107.701C103.021 107.64 103.343 107.579 103.674 107.516C106.874 107.034 110.099 107.047 113.324 107.046ZM105.826 108.366C105.509 108.393 105.509 108.393 105.185 108.421C102.543 108.67 102.543 108.67 100.326 109.996C99.6308 112.759 100.889 115.453 102.2 117.82C104.267 121.329 107.604 125.243 111.202 127.001C111.254 126.832 111.425 125.787 111.479 125.612C112.701 123.004 113.696 122.342 116.198 121.005C118.937 119.645 121.499 119.108 124.194 120.006C127.192 121.005 128.191 121.505 130.19 124.003C130.689 125.002 131.189 126.002 131.189 126.501C135.776 124.32 139.126 118.869 141.08 114.223C141.295 113.419 141.387 112.681 141.41 111.845C141.419 111.622 141.429 111.399 141.438 111.168C141.292 110.288 140.995 110.007 140.325 109.468C134.559 107.171 127.041 108.063 120.979 108.078C119.751 108.081 118.524 108.079 117.296 108.076C116.332 108.074 115.368 108.075 114.403 108.076C113.951 108.077 113.499 108.076 113.047 108.075C110.63 108.07 108.234 108.143 105.826 108.366Z" fill="black"/>
<path d="M128.39 122.629C129.595 123.785 130.508 124.687 130.592 126.486C127.553 129.358 123.538 130.071 119.581 129.873C117.076 129.603 114.421 128.912 112.356 127.326C111.976 126.75 111.976 126.75 111.983 125.972C112.608 123.912 114.215 122.601 115.975 121.612C120.267 119.366 124.48 119.286 128.39 122.629Z" fill="#E44D64"/>
<path d="M121.292 120.857C121.891 120.945 122.347 121.017 122.499 121.389C121.36 122.4 119.658 123.079 117.922 123.556C116.814 123.828 115.614 124.029 114.613 123.963C114.411 123.89 114.411 123.89 114.364 123.723C114.503 123.203 115.119 122.712 115.822 122.27C117.546 121.228 119.375 120.658 121.292 120.857Z" fill="#F87C8F"/>
<path d="M173.241 64.6526C176.622 67.5614 179.052 71.7299 179.555 76.2759C179.888 80.8601 178.865 84.8691 176.066 88.4791C175.484 89.166 174.882 89.8195 174.258 90.4661C174.023 90.722 174.023 90.722 173.784 90.983C171.332 93.4489 167.72 94.8122 164.459 95.6509C164.261 95.703 164.063 95.755 163.858 95.8087C159.539 96.4964 155.326 95.881 151.748 93.1949C147.669 89.9095 145.129 85.3482 144.333 80.0963C143.884 75.2568 145.247 70.4895 148.246 66.7298C154.376 59.6095 166.088 59.04 173.241 64.6526Z" fill="#040707"/>
<path d="M162.137 68.5424C163.766 69.7891 164.489 71.4878 164.914 73.4565C165.079 75.49 164.672 77.1658 163.374 78.7784C161.978 80.259 160.03 80.9634 158.013 81.0335C155.496 81.0707 153.793 80.6002 151.87 78.9032C150.373 77.2733 149.878 75.3707 149.968 73.1951C150.279 71.1093 151.398 69.6743 153.02 68.3698C155.763 66.441 159.418 66.721 162.137 68.5424Z" fill="white"/>
<ellipse cx="170.445" cy="86.5319" rx="2.49844" ry="2.49836" fill="white"/>
</g>
  </g>
  <g id="wordmark" transform="translate(-36, -16)">
    <path d="M114.674 20.3416C114.86 20.8997 118.575 33.1708 123.644 49.9699C124.881 47.0523 125.76 44.9535 125.899 44.5168C125.921 44.447 125.996 44.1983 126.201 44.0679C126.381 43.9557 126.573 43.986 126.62 43.9921C127.014 44.0437 130.205 44.0315 134.811 43.9921C130.042 59.0716 126.537 70.0962 126.392 70.4844C126.29 70.7574 126.184 71.0273 126.184 71.0273C126.184 71.0273 126.087 71.276 125.99 71.5156C125.477 72.7864 124.13 75.4038 123.808 75.9042C123.714 76.0498 123.619 76.1893 123.619 76.1893C123.619 76.1893 123.514 76.3439 123.409 76.4956C122.946 77.1537 120.547 79.6741 120.026 80.0926C119.906 80.1897 119.787 80.2806 119.787 80.2806C119.787 80.2806 119.66 80.3777 119.532 80.4717C119.022 80.8417 115.653 82.4006 114.693 82.5856C114.469 82.6281 114.233 82.6675 114.233 82.6675C114.033 82.7009 113.883 82.7191 113.853 82.7221C110.495 83.1619 107.195 83.0163 100.592 82.7221C100.506 82.7191 100.251 82.707 100.074 82.5159C99.9131 82.34 99.8909 82.0943 99.8853 81.9912C99.7883 80.6234 99.9214 74.1026 99.8853 73.7326C99.8853 73.7266 99.8853 73.6113 99.8853 73.3808C99.8853 73.2504 99.8853 73.1837 99.9297 73.1382C99.9713 73.0927 100.032 73.0927 100.118 73.0927C100.243 73.0927 100.368 73.0684 100.493 73.0806C100.67 73.0957 103.992 72.9835 112.087 72.6711C112.655 72.6438 113.553 72.5134 114.482 71.9493C114.801 71.7552 115.018 71.5672 115.45 71.1941C116.26 70.4905 117.164 69.6928 117.782 68.3856C117.882 68.1733 117.96 67.9671 118.107 67.5637C118.88 65.4528 119.549 63.5755 119.346 61.4252C119.346 61.4252 119.335 61.2978 119.305 61.0915C119.28 60.9096 119.172 60.3455 119.16 60.2969C119.002 59.5903 107.808 25.6007 105.398 21.1362C105.27 20.8997 104.796 20.0596 105.071 19.6471C105.229 19.4075 105.576 19.4105 105.725 19.4105C110.498 19.4105 112.882 19.4105 113.858 19.5258C113.911 19.5318 114.039 19.547 114.18 19.6289C114.51 19.82 114.638 20.2051 114.682 20.3416H114.674Z" fill="url(#paint5_linear_yve)"/>
  <path d="M128.883 19.5955C128.93 19.735 128.977 19.8715 129.027 20.011C134.151 34.8237 139.276 49.6363 144.4 64.452H152.012L167.43 19.5986C161.812 19.6107 157.919 19.5986 157.805 19.5986C157.797 19.5986 157.744 19.5925 157.686 19.6198C157.686 19.6198 157.63 19.6532 157.6 19.7411C157.539 19.9231 149.026 46.6004 148.158 49.327C143.718 35.8063 138.491 19.8958 138.427 19.7593C138.397 19.6986 138.352 19.6592 138.352 19.6592C138.283 19.6016 138.203 19.5955 138.167 19.5955C136.165 19.55 129.332 19.5955 129.332 19.5955C129.135 19.5955 128.974 19.5955 128.885 19.5955H128.883Z" fill="url(#paint6_linear_yve)"/>
  <path d="M180.824 49.1538C181.569 50.5125 182.568 52.3322 184.631 53.4999C186.259 54.4249 187.717 54.4704 189.741 54.5341C191.369 54.5857 192.617 54.2763 193.407 54.0943C194.777 53.782 195.476 53.4453 195.82 53.2664C196.128 53.1056 196.729 52.7659 197.337 52.2564C197.456 52.1563 197.825 51.8318 198.169 51.4133C199.081 50.3063 198.978 49.5268 199.444 48.8687C199.991 48.0983 200.87 48.1135 204.056 48.0407C206.779 47.977 207.86 47.9285 208.351 48.0013C208.617 48.0407 208.709 48.1165 208.798 48.2469C209.898 49.912 206.188 54.8101 205.331 55.9414C204.114 57.5458 202.891 58.7438 202.198 59.4171C200.919 60.6575 200.124 61.44 198.865 62.2255C198.205 62.635 196.3 63.7541 193.588 64.2363C193.247 64.297 191.619 64.576 189.442 64.388C188.929 64.3455 187.201 64.1726 184.578 63.2567C182.241 62.4409 180.089 61.6887 177.815 59.8568C174.884 57.4942 173.425 54.6827 172.688 53.2239C170.561 49.0234 170.239 45.1989 170.089 43.1881C170.017 42.2145 169.809 38.7601 170.738 34.4291C171.151 32.5002 171.642 30.2285 173.065 27.6233C173.467 26.8863 175.391 23.4803 179.285 20.7932C181.936 18.9644 184.331 18.2729 185.338 18.0211C189.043 17.0991 192.026 17.6299 193.086 17.8574C193.674 17.9848 195.648 18.4397 197.994 19.7317C202.273 22.0913 204.68 25.5215 205.661 27.0986C206.313 28.148 207.491 30.0496 208.224 32.8611C208.659 34.5352 209.91 39.3363 207.81 41.6747C206.909 42.6785 205.708 42.8757 204.838 42.9909C198.085 43.8856 183.067 43.6369 180.86 43.6946C180.665 43.7006 180.219 43.7188 179.911 44.0555C179.088 44.9653 180.008 47.4038 180.824 49.1477V49.1538ZM200.573 34.7172C201.249 33.5465 199.331 30.644 197.378 28.9699C194.256 26.2888 190.585 26.3495 189.417 26.3889C188.23 26.4283 184.609 26.5436 181.786 29.3399C179.889 31.2203 178.297 34.3715 178.896 35.0781C179.032 35.2389 179.257 35.2389 179.34 35.2389C185.704 35.2662 192.074 34.9568 198.432 35.2571C199.148 35.2904 200.201 35.3632 200.573 34.7172Z" fill="url(#paint7_linear_yve)"/>
  </g>
  <defs>
    <filter id="filter0_d_2908_2299" x="-1" y="0" width="240" height="249" filterUnits="userSpaceOnUse" color-interpolation-filters="sRGB">
<feFlood flood-opacity="0" result="BackgroundImageFix"/>
<feColorMatrix in="SourceAlpha" type="matrix" values="0 0 0 0 0 0 0 0 0 0 0 0 0 0 0 0 0 0 127 0" result="hardAlpha"/>
<feOffset dy="4"/>
<feGaussianBlur stdDeviation="2"/>
<feComposite in2="hardAlpha" operator="out"/>
<feColorMatrix type="matrix" values="0 0 0 0 0 0 0 0 0 0 0 0 0 0 0 0 0 0 0.25 0"/>
<feBlend mode="normal" in2="BackgroundImageFix" result="effect1_dropShadow_2908_2299"/>
<feBlend mode="normal" in="SourceGraphic" in2="effect1_dropShadow_2908_2299" result="shape"/>
</filter>
<linearGradient id="paint0_linear_2908_2299" x1="155.455" y1="130.503" x2="-1.44507" y2="61.0446" gradientUnits="userSpaceOnUse">
<stop stop-color="#C91522"/>
<stop offset="0.235577" stop-color="#CA262B"/>
<stop offset="1" stop-color="#751623"/>
</linearGradient>
<linearGradient id="paint1_linear_2908_2299" x1="19.0393" y1="132.002" x2="105.804" y2="194.735" gradientUnits="userSpaceOnUse">
<stop stop-color="#871925" stop-opacity="0.63"/>
<stop offset="1" stop-color="#601415"/>
</linearGradient>
    <linearGradient id="paint5_linear_yve" x1="125.662" y1="78.1744" x2="147.892" y2="38.0215" gradientUnits="userSpaceOnUse">
      <stop offset="0.25" stop-color="#B11116"/>
      <stop offset="0.34" stop-color="#CA2225"/>
      <stop offset="0.45" stop-color="#EA2728"/>
      <stop offset="0.49" stop-color="#E94726"/>
      <stop offset="0.56" stop-color="#E87524"/>
      <stop offset="0.62" stop-color="#E79622"/>
      <stop offset="0.67" stop-color="#E7AA21"/>
      <stop offset="0.7" stop-color="#E7B221"/>
      <stop offset="1" stop-color="#EADC16"/>
    </linearGradient>
    <linearGradient id="paint6_linear_yve" x1="145.432" y1="57.2636" x2="144.399" y2="4.82198" gradientUnits="userSpaceOnUse">
      <stop offset="0.129808" stop-color="#B11F24"/>
      <stop offset="0.216346" stop-color="#D02326"/>
      <stop offset="0.331731" stop-color="#EA2728"/>
      <stop offset="0.586538" stop-color="#E9D318"/>
      <stop offset="1" stop-color="#EADC16"/>
    </linearGradient>
    <linearGradient id="paint7_linear_yve" x1="157.908" y1="57.7278" x2="190.336" y2="20.7145" gradientUnits="userSpaceOnUse">
      <stop offset="0.46" stop-color="#B11F24"/>
      <stop offset="0.57" stop-color="#EA2728"/>
      <stop offset="0.8" stop-color="#E7B221"/>
      <stop offset="0.913462" stop-color="#EADC16"/>
    </linearGradient>
  </defs>
</svg>